<?xml version="1.0" encoding="utf-8" standalone="no"?>
<!DOCTYPE svg PUBLIC "-//W3C//DTD SVG 1.1//EN"
  "http://www.w3.org/Graphics/SVG/1.1/DTD/svg11.dtd">
<!-- Created with matplotlib (https://matplotlib.org/) -->
<svg height="720pt" version="1.1" viewBox="0 0 1080 720" width="1080pt" xmlns="http://www.w3.org/2000/svg" xmlns:xlink="http://www.w3.org/1999/xlink">
 <defs>
  <style type="text/css">
*{stroke-linecap:butt;stroke-linejoin:round;}
  </style>
 </defs>
 <g id="figure_1">
  <g id="patch_1">
   <path d="M 0 720 
L 1080 720 
L 1080 0 
L 0 0 
z
" style="fill:#ffffff;"/>
  </g>
  <g id="axes_1">
   <g id="patch_2">
    <path d="M 135 630 
L 972 630 
L 972 86.4 
L 135 86.4 
z
" style="fill:#ffffff;"/>
   </g>
   <g id="matplotlib.axis_1">
    <g id="xtick_1">
     <g id="line2d_1">
      <path clip-path="url(#p3671d2ed35)" d="M 153.534965 630 
L 153.534965 86.4 
" style="fill:none;stroke:#b0b0b0;stroke-linecap:square;stroke-width:0.8;"/>
     </g>
     <g id="line2d_2">
      <defs>
       <path d="M 0 0 
L 0 3.5 
" id="maa695c8612" style="stroke:#000000;stroke-width:0.8;"/>
      </defs>
      <g>
       <use style="stroke:#000000;stroke-width:0.8;" x="153.534965" xlink:href="#maa695c8612" y="630"/>
      </g>
     </g>
     <g id="text_1">
      <!-- 0 -->
      <defs>
       <path d="M 31.78125 66.40625 
Q 24.171875 66.40625 20.328125 58.90625 
Q 16.5 51.421875 16.5 36.375 
Q 16.5 21.390625 20.328125 13.890625 
Q 24.171875 6.390625 31.78125 6.390625 
Q 39.453125 6.390625 43.28125 13.890625 
Q 47.125 21.390625 47.125 36.375 
Q 47.125 51.421875 43.28125 58.90625 
Q 39.453125 66.40625 31.78125 66.40625 
z
M 31.78125 74.21875 
Q 44.046875 74.21875 50.515625 64.515625 
Q 56.984375 54.828125 56.984375 36.375 
Q 56.984375 17.96875 50.515625 8.265625 
Q 44.046875 -1.421875 31.78125 -1.421875 
Q 19.53125 -1.421875 13.0625 8.265625 
Q 6.59375 17.96875 6.59375 36.375 
Q 6.59375 54.828125 13.0625 64.515625 
Q 19.53125 74.21875 31.78125 74.21875 
z
" id="DejaVuSans-48"/>
      </defs>
      <g transform="translate(148.037765 650.1301)scale(0.1728 -0.1728)">
       <use xlink:href="#DejaVuSans-48"/>
      </g>
     </g>
    </g>
    <g id="xtick_2">
     <g id="line2d_3">
      <path clip-path="url(#p3671d2ed35)" d="M 251.087413 630 
L 251.087413 86.4 
" style="fill:none;stroke:#b0b0b0;stroke-linecap:square;stroke-width:0.8;"/>
     </g>
     <g id="line2d_4">
      <g>
       <use style="stroke:#000000;stroke-width:0.8;" x="251.087413" xlink:href="#maa695c8612" y="630"/>
      </g>
     </g>
     <g id="text_2">
      <!-- 5 -->
      <defs>
       <path d="M 10.796875 72.90625 
L 49.515625 72.90625 
L 49.515625 64.59375 
L 19.828125 64.59375 
L 19.828125 46.734375 
Q 21.96875 47.46875 24.109375 47.828125 
Q 26.265625 48.1875 28.421875 48.1875 
Q 40.625 48.1875 47.75 41.5 
Q 54.890625 34.8125 54.890625 23.390625 
Q 54.890625 11.625 47.5625 5.09375 
Q 40.234375 -1.421875 26.90625 -1.421875 
Q 22.3125 -1.421875 17.546875 -0.640625 
Q 12.796875 0.140625 7.71875 1.703125 
L 7.71875 11.625 
Q 12.109375 9.234375 16.796875 8.0625 
Q 21.484375 6.890625 26.703125 6.890625 
Q 35.15625 6.890625 40.078125 11.328125 
Q 45.015625 15.765625 45.015625 23.390625 
Q 45.015625 31 40.078125 35.4375 
Q 35.15625 39.890625 26.703125 39.890625 
Q 22.75 39.890625 18.8125 39.015625 
Q 14.890625 38.140625 10.796875 36.28125 
z
" id="DejaVuSans-53"/>
      </defs>
      <g transform="translate(245.590213 650.1301)scale(0.1728 -0.1728)">
       <use xlink:href="#DejaVuSans-53"/>
      </g>
     </g>
    </g>
    <g id="xtick_3">
     <g id="line2d_5">
      <path clip-path="url(#p3671d2ed35)" d="M 348.63986 630 
L 348.63986 86.4 
" style="fill:none;stroke:#b0b0b0;stroke-linecap:square;stroke-width:0.8;"/>
     </g>
     <g id="line2d_6">
      <g>
       <use style="stroke:#000000;stroke-width:0.8;" x="348.63986" xlink:href="#maa695c8612" y="630"/>
      </g>
     </g>
     <g id="text_3">
      <!-- 10 -->
      <defs>
       <path d="M 12.40625 8.296875 
L 28.515625 8.296875 
L 28.515625 63.921875 
L 10.984375 60.40625 
L 10.984375 69.390625 
L 28.421875 72.90625 
L 38.28125 72.90625 
L 38.28125 8.296875 
L 54.390625 8.296875 
L 54.390625 0 
L 12.40625 0 
z
" id="DejaVuSans-49"/>
      </defs>
      <g transform="translate(337.64546 650.1301)scale(0.1728 -0.1728)">
       <use xlink:href="#DejaVuSans-49"/>
       <use x="63.623047" xlink:href="#DejaVuSans-48"/>
      </g>
     </g>
    </g>
    <g id="xtick_4">
     <g id="line2d_7">
      <path clip-path="url(#p3671d2ed35)" d="M 446.192308 630 
L 446.192308 86.4 
" style="fill:none;stroke:#b0b0b0;stroke-linecap:square;stroke-width:0.8;"/>
     </g>
     <g id="line2d_8">
      <g>
       <use style="stroke:#000000;stroke-width:0.8;" x="446.192308" xlink:href="#maa695c8612" y="630"/>
      </g>
     </g>
     <g id="text_4">
      <!-- 15 -->
      <g transform="translate(435.197908 650.1301)scale(0.1728 -0.1728)">
       <use xlink:href="#DejaVuSans-49"/>
       <use x="63.623047" xlink:href="#DejaVuSans-53"/>
      </g>
     </g>
    </g>
    <g id="xtick_5">
     <g id="line2d_9">
      <path clip-path="url(#p3671d2ed35)" d="M 543.744755 630 
L 543.744755 86.4 
" style="fill:none;stroke:#b0b0b0;stroke-linecap:square;stroke-width:0.8;"/>
     </g>
     <g id="line2d_10">
      <g>
       <use style="stroke:#000000;stroke-width:0.8;" x="543.744755" xlink:href="#maa695c8612" y="630"/>
      </g>
     </g>
     <g id="text_5">
      <!-- 20 -->
      <defs>
       <path d="M 19.1875 8.296875 
L 53.609375 8.296875 
L 53.609375 0 
L 7.328125 0 
L 7.328125 8.296875 
Q 12.9375 14.109375 22.625 23.890625 
Q 32.328125 33.6875 34.8125 36.53125 
Q 39.546875 41.84375 41.421875 45.53125 
Q 43.3125 49.21875 43.3125 52.78125 
Q 43.3125 58.59375 39.234375 62.25 
Q 35.15625 65.921875 28.609375 65.921875 
Q 23.96875 65.921875 18.8125 64.3125 
Q 13.671875 62.703125 7.8125 59.421875 
L 7.8125 69.390625 
Q 13.765625 71.78125 18.9375 73 
Q 24.125 74.21875 28.421875 74.21875 
Q 39.75 74.21875 46.484375 68.546875 
Q 53.21875 62.890625 53.21875 53.421875 
Q 53.21875 48.921875 51.53125 44.890625 
Q 49.859375 40.875 45.40625 35.40625 
Q 44.1875 33.984375 37.640625 27.21875 
Q 31.109375 20.453125 19.1875 8.296875 
z
" id="DejaVuSans-50"/>
      </defs>
      <g transform="translate(532.750355 650.1301)scale(0.1728 -0.1728)">
       <use xlink:href="#DejaVuSans-50"/>
       <use x="63.623047" xlink:href="#DejaVuSans-48"/>
      </g>
     </g>
    </g>
    <g id="xtick_6">
     <g id="line2d_11">
      <path clip-path="url(#p3671d2ed35)" d="M 641.297203 630 
L 641.297203 86.4 
" style="fill:none;stroke:#b0b0b0;stroke-linecap:square;stroke-width:0.8;"/>
     </g>
     <g id="line2d_12">
      <g>
       <use style="stroke:#000000;stroke-width:0.8;" x="641.297203" xlink:href="#maa695c8612" y="630"/>
      </g>
     </g>
     <g id="text_6">
      <!-- 25 -->
      <g transform="translate(630.302803 650.1301)scale(0.1728 -0.1728)">
       <use xlink:href="#DejaVuSans-50"/>
       <use x="63.623047" xlink:href="#DejaVuSans-53"/>
      </g>
     </g>
    </g>
    <g id="xtick_7">
     <g id="line2d_13">
      <path clip-path="url(#p3671d2ed35)" d="M 738.84965 630 
L 738.84965 86.4 
" style="fill:none;stroke:#b0b0b0;stroke-linecap:square;stroke-width:0.8;"/>
     </g>
     <g id="line2d_14">
      <g>
       <use style="stroke:#000000;stroke-width:0.8;" x="738.84965" xlink:href="#maa695c8612" y="630"/>
      </g>
     </g>
     <g id="text_7">
      <!-- 30 -->
      <defs>
       <path d="M 40.578125 39.3125 
Q 47.65625 37.796875 51.625 33 
Q 55.609375 28.21875 55.609375 21.1875 
Q 55.609375 10.40625 48.1875 4.484375 
Q 40.765625 -1.421875 27.09375 -1.421875 
Q 22.515625 -1.421875 17.65625 -0.515625 
Q 12.796875 0.390625 7.625 2.203125 
L 7.625 11.71875 
Q 11.71875 9.328125 16.59375 8.109375 
Q 21.484375 6.890625 26.8125 6.890625 
Q 36.078125 6.890625 40.9375 10.546875 
Q 45.796875 14.203125 45.796875 21.1875 
Q 45.796875 27.640625 41.28125 31.265625 
Q 36.765625 34.90625 28.71875 34.90625 
L 20.21875 34.90625 
L 20.21875 43.015625 
L 29.109375 43.015625 
Q 36.375 43.015625 40.234375 45.921875 
Q 44.09375 48.828125 44.09375 54.296875 
Q 44.09375 59.90625 40.109375 62.90625 
Q 36.140625 65.921875 28.71875 65.921875 
Q 24.65625 65.921875 20.015625 65.03125 
Q 15.375 64.15625 9.8125 62.3125 
L 9.8125 71.09375 
Q 15.4375 72.65625 20.34375 73.4375 
Q 25.25 74.21875 29.59375 74.21875 
Q 40.828125 74.21875 47.359375 69.109375 
Q 53.90625 64.015625 53.90625 55.328125 
Q 53.90625 49.265625 50.4375 45.09375 
Q 46.96875 40.921875 40.578125 39.3125 
z
" id="DejaVuSans-51"/>
      </defs>
      <g transform="translate(727.85525 650.1301)scale(0.1728 -0.1728)">
       <use xlink:href="#DejaVuSans-51"/>
       <use x="63.623047" xlink:href="#DejaVuSans-48"/>
      </g>
     </g>
    </g>
    <g id="xtick_8">
     <g id="line2d_15">
      <path clip-path="url(#p3671d2ed35)" d="M 836.402098 630 
L 836.402098 86.4 
" style="fill:none;stroke:#b0b0b0;stroke-linecap:square;stroke-width:0.8;"/>
     </g>
     <g id="line2d_16">
      <g>
       <use style="stroke:#000000;stroke-width:0.8;" x="836.402098" xlink:href="#maa695c8612" y="630"/>
      </g>
     </g>
     <g id="text_8">
      <!-- 35 -->
      <g transform="translate(825.407698 650.1301)scale(0.1728 -0.1728)">
       <use xlink:href="#DejaVuSans-51"/>
       <use x="63.623047" xlink:href="#DejaVuSans-53"/>
      </g>
     </g>
    </g>
    <g id="xtick_9">
     <g id="line2d_17">
      <path clip-path="url(#p3671d2ed35)" d="M 933.954545 630 
L 933.954545 86.4 
" style="fill:none;stroke:#b0b0b0;stroke-linecap:square;stroke-width:0.8;"/>
     </g>
     <g id="line2d_18">
      <g>
       <use style="stroke:#000000;stroke-width:0.8;" x="933.954545" xlink:href="#maa695c8612" y="630"/>
      </g>
     </g>
     <g id="text_9">
      <!-- 40 -->
      <defs>
       <path d="M 37.796875 64.3125 
L 12.890625 25.390625 
L 37.796875 25.390625 
z
M 35.203125 72.90625 
L 47.609375 72.90625 
L 47.609375 25.390625 
L 58.015625 25.390625 
L 58.015625 17.1875 
L 47.609375 17.1875 
L 47.609375 0 
L 37.796875 0 
L 37.796875 17.1875 
L 4.890625 17.1875 
L 4.890625 26.703125 
z
" id="DejaVuSans-52"/>
      </defs>
      <g transform="translate(922.960145 650.1301)scale(0.1728 -0.1728)">
       <use xlink:href="#DejaVuSans-52"/>
       <use x="63.623047" xlink:href="#DejaVuSans-48"/>
      </g>
     </g>
    </g>
    <g id="text_10">
     <!-- $C$ -->
     <defs>
      <path d="M 69.484375 67.28125 
L 67.484375 56.890625 
Q 62.796875 61.625 57.546875 63.921875 
Q 52.296875 66.21875 46.1875 66.21875 
Q 37.84375 66.21875 31.515625 62.203125 
Q 25.203125 58.203125 20.609375 50 
Q 17.671875 44.734375 16.125 38.84375 
Q 14.59375 32.953125 14.59375 27 
Q 14.59375 17.046875 19.75 11.8125 
Q 24.90625 6.59375 34.71875 6.59375 
Q 41.5 6.59375 47.75 8.765625 
Q 54 10.9375 59.90625 15.28125 
L 57.625 3.609375 
Q 51.8125 1.125 45.875 -0.140625 
Q 39.9375 -1.421875 33.984375 -1.421875 
Q 19.96875 -1.421875 12.078125 6.1875 
Q 4.203125 13.8125 4.203125 27.390625 
Q 4.203125 36.078125 7.203125 44.46875 
Q 10.203125 52.875 15.828125 59.8125 
Q 21.78125 67.1875 29.421875 70.703125 
Q 37.0625 74.21875 47.21875 74.21875 
Q 53.46875 74.21875 59.0625 72.484375 
Q 64.65625 70.75 69.484375 67.28125 
z
" id="DejaVuSans-Oblique-67"/>
     </defs>
     <g transform="translate(547.452 670.8539)scale(0.1728 -0.1728)">
      <use transform="translate(0 0.78125)" xlink:href="#DejaVuSans-Oblique-67"/>
     </g>
    </g>
   </g>
   <g id="matplotlib.axis_2">
    <g id="ytick_1">
     <g id="line2d_19">
      <path clip-path="url(#p3671d2ed35)" d="M 135 445.08769 
L 972 445.08769 
" style="fill:none;stroke:#b0b0b0;stroke-linecap:square;stroke-width:0.8;"/>
     </g>
     <g id="line2d_20">
      <defs>
       <path d="M 0 0 
L -3.5 0 
" id="ma93c70595d" style="stroke:#000000;stroke-width:0.8;"/>
      </defs>
      <g>
       <use style="stroke:#000000;stroke-width:0.8;" x="135" xlink:href="#ma93c70595d" y="445.08769"/>
      </g>
     </g>
     <g id="text_11">
      <!-- $\mathdefault{10^{-1}}$ -->
      <defs>
       <path d="M 10.59375 35.5 
L 73.1875 35.5 
L 73.1875 27.203125 
L 10.59375 27.203125 
z
" id="DejaVuSans-8722"/>
      </defs>
      <g transform="translate(87.392 451.65274)scale(0.1728 -0.1728)">
       <use transform="translate(0 0.684375)" xlink:href="#DejaVuSans-49"/>
       <use transform="translate(63.623047 0.684375)" xlink:href="#DejaVuSans-48"/>
       <use transform="translate(128.203125 38.965625)scale(0.7)" xlink:href="#DejaVuSans-8722"/>
       <use transform="translate(186.855469 38.965625)scale(0.7)" xlink:href="#DejaVuSans-49"/>
      </g>
     </g>
    </g>
    <g id="ytick_2">
     <g id="line2d_21">
      <path clip-path="url(#p3671d2ed35)" d="M 135 111.109091 
L 972 111.109091 
" style="fill:none;stroke:#b0b0b0;stroke-linecap:square;stroke-width:0.8;"/>
     </g>
     <g id="line2d_22">
      <g>
       <use style="stroke:#000000;stroke-width:0.8;" x="135" xlink:href="#ma93c70595d" y="111.109091"/>
      </g>
     </g>
     <g id="text_12">
      <!-- $\mathdefault{10^{0}}$ -->
      <g transform="translate(97.5872 117.674141)scale(0.1728 -0.1728)">
       <use transform="translate(0 0.765625)" xlink:href="#DejaVuSans-49"/>
       <use transform="translate(63.623047 0.765625)" xlink:href="#DejaVuSans-48"/>
       <use transform="translate(128.203125 39.046875)scale(0.7)" xlink:href="#DejaVuSans-48"/>
      </g>
     </g>
    </g>
    <g id="ytick_3">
     <g id="line2d_23">
      <path clip-path="url(#p3671d2ed35)" d="M 135 619.718001 
L 972 619.718001 
" style="fill:none;stroke:#b0b0b0;stroke-linecap:square;stroke-width:0.8;"/>
     </g>
     <g id="line2d_24">
      <defs>
       <path d="M 0 0 
L -2 0 
" id="md0e25d5ae2" style="stroke:#000000;stroke-width:0.6;"/>
      </defs>
      <g>
       <use style="stroke:#000000;stroke-width:0.6;" x="135" xlink:href="#md0e25d5ae2" y="619.718001"/>
      </g>
     </g>
    </g>
    <g id="ytick_4">
     <g id="line2d_25">
      <path clip-path="url(#p3671d2ed35)" d="M 135 577.991137 
L 972 577.991137 
" style="fill:none;stroke:#b0b0b0;stroke-linecap:square;stroke-width:0.8;"/>
     </g>
     <g id="line2d_26">
      <g>
       <use style="stroke:#000000;stroke-width:0.6;" x="135" xlink:href="#md0e25d5ae2" y="577.991137"/>
      </g>
     </g>
    </g>
    <g id="ytick_5">
     <g id="line2d_27">
      <path clip-path="url(#p3671d2ed35)" d="M 135 545.625266 
L 972 545.625266 
" style="fill:none;stroke:#b0b0b0;stroke-linecap:square;stroke-width:0.8;"/>
     </g>
     <g id="line2d_28">
      <g>
       <use style="stroke:#000000;stroke-width:0.6;" x="135" xlink:href="#md0e25d5ae2" y="545.625266"/>
      </g>
     </g>
    </g>
    <g id="ytick_6">
     <g id="line2d_29">
      <path clip-path="url(#p3671d2ed35)" d="M 135 519.180425 
L 972 519.180425 
" style="fill:none;stroke:#b0b0b0;stroke-linecap:square;stroke-width:0.8;"/>
     </g>
     <g id="line2d_30">
      <g>
       <use style="stroke:#000000;stroke-width:0.6;" x="135" xlink:href="#md0e25d5ae2" y="519.180425"/>
      </g>
     </g>
    </g>
    <g id="ytick_7">
     <g id="line2d_31">
      <path clip-path="url(#p3671d2ed35)" d="M 135 496.82163 
L 972 496.82163 
" style="fill:none;stroke:#b0b0b0;stroke-linecap:square;stroke-width:0.8;"/>
     </g>
     <g id="line2d_32">
      <g>
       <use style="stroke:#000000;stroke-width:0.6;" x="135" xlink:href="#md0e25d5ae2" y="496.82163"/>
      </g>
     </g>
    </g>
    <g id="ytick_8">
     <g id="line2d_33">
      <path clip-path="url(#p3671d2ed35)" d="M 135 477.453561 
L 972 477.453561 
" style="fill:none;stroke:#b0b0b0;stroke-linecap:square;stroke-width:0.8;"/>
     </g>
     <g id="line2d_34">
      <g>
       <use style="stroke:#000000;stroke-width:0.6;" x="135" xlink:href="#md0e25d5ae2" y="477.453561"/>
      </g>
     </g>
    </g>
    <g id="ytick_9">
     <g id="line2d_35">
      <path clip-path="url(#p3671d2ed35)" d="M 135 460.369713 
L 972 460.369713 
" style="fill:none;stroke:#b0b0b0;stroke-linecap:square;stroke-width:0.8;"/>
     </g>
     <g id="line2d_36">
      <g>
       <use style="stroke:#000000;stroke-width:0.6;" x="135" xlink:href="#md0e25d5ae2" y="460.369713"/>
      </g>
     </g>
    </g>
    <g id="ytick_10">
     <g id="line2d_37">
      <path clip-path="url(#p3671d2ed35)" d="M 135 344.550114 
L 972 344.550114 
" style="fill:none;stroke:#b0b0b0;stroke-linecap:square;stroke-width:0.8;"/>
     </g>
     <g id="line2d_38">
      <g>
       <use style="stroke:#000000;stroke-width:0.6;" x="135" xlink:href="#md0e25d5ae2" y="344.550114"/>
      </g>
     </g>
    </g>
    <g id="ytick_11">
     <g id="line2d_39">
      <path clip-path="url(#p3671d2ed35)" d="M 135 285.739402 
L 972 285.739402 
" style="fill:none;stroke:#b0b0b0;stroke-linecap:square;stroke-width:0.8;"/>
     </g>
     <g id="line2d_40">
      <g>
       <use style="stroke:#000000;stroke-width:0.6;" x="135" xlink:href="#md0e25d5ae2" y="285.739402"/>
      </g>
     </g>
    </g>
    <g id="ytick_12">
     <g id="line2d_41">
      <path clip-path="url(#p3671d2ed35)" d="M 135 244.012538 
L 972 244.012538 
" style="fill:none;stroke:#b0b0b0;stroke-linecap:square;stroke-width:0.8;"/>
     </g>
     <g id="line2d_42">
      <g>
       <use style="stroke:#000000;stroke-width:0.6;" x="135" xlink:href="#md0e25d5ae2" y="244.012538"/>
      </g>
     </g>
    </g>
    <g id="ytick_13">
     <g id="line2d_43">
      <path clip-path="url(#p3671d2ed35)" d="M 135 211.646667 
L 972 211.646667 
" style="fill:none;stroke:#b0b0b0;stroke-linecap:square;stroke-width:0.8;"/>
     </g>
     <g id="line2d_44">
      <g>
       <use style="stroke:#000000;stroke-width:0.6;" x="135" xlink:href="#md0e25d5ae2" y="211.646667"/>
      </g>
     </g>
    </g>
    <g id="ytick_14">
     <g id="line2d_45">
      <path clip-path="url(#p3671d2ed35)" d="M 135 185.201826 
L 972 185.201826 
" style="fill:none;stroke:#b0b0b0;stroke-linecap:square;stroke-width:0.8;"/>
     </g>
     <g id="line2d_46">
      <g>
       <use style="stroke:#000000;stroke-width:0.6;" x="135" xlink:href="#md0e25d5ae2" y="185.201826"/>
      </g>
     </g>
    </g>
    <g id="ytick_15">
     <g id="line2d_47">
      <path clip-path="url(#p3671d2ed35)" d="M 135 162.843031 
L 972 162.843031 
" style="fill:none;stroke:#b0b0b0;stroke-linecap:square;stroke-width:0.8;"/>
     </g>
     <g id="line2d_48">
      <g>
       <use style="stroke:#000000;stroke-width:0.6;" x="135" xlink:href="#md0e25d5ae2" y="162.843031"/>
      </g>
     </g>
    </g>
    <g id="ytick_16">
     <g id="line2d_49">
      <path clip-path="url(#p3671d2ed35)" d="M 135 143.474961 
L 972 143.474961 
" style="fill:none;stroke:#b0b0b0;stroke-linecap:square;stroke-width:0.8;"/>
     </g>
     <g id="line2d_50">
      <g>
       <use style="stroke:#000000;stroke-width:0.6;" x="135" xlink:href="#md0e25d5ae2" y="143.474961"/>
      </g>
     </g>
    </g>
    <g id="ytick_17">
     <g id="line2d_51">
      <path clip-path="url(#p3671d2ed35)" d="M 135 126.391114 
L 972 126.391114 
" style="fill:none;stroke:#b0b0b0;stroke-linecap:square;stroke-width:0.8;"/>
     </g>
     <g id="line2d_52">
      <g>
       <use style="stroke:#000000;stroke-width:0.6;" x="135" xlink:href="#md0e25d5ae2" y="126.391114"/>
      </g>
     </g>
    </g>
   </g>
   <g id="line2d_53">
    <path clip-path="url(#p3671d2ed35)" d="M 173.045455 188.462523 
L 211.090909 465.857109 
L 249.136364 392.807974 
L 287.181818 388.315909 
L 325.227273 381.760006 
L 363.272727 374.248503 
L 401.318182 366.119701 
L 439.363636 357.245112 
L 477.409091 347.175127 
L 515.454545 335.269151 
L 553.5 320.888234 
L 591.545455 315.250925 
L 629.590909 313.038312 
L 667.636364 309.990864 
L 705.681818 306.362321 
L 743.727273 302.348412 
L 781.772727 298.238243 
L 819.818182 294.393863 
L 857.863636 290.407023 
L 895.909091 286.361801 
L 933.954545 282.323008 
" style="fill:none;stroke:#1f77b4;stroke-linecap:square;stroke-width:3;"/>
   </g>
   <g id="line2d_54">
    <path clip-path="url(#p3671d2ed35)" d="M 173.045455 111.109091 
L 211.090909 111.111554 
L 249.136364 111.564678 
L 287.181818 112.259841 
L 325.227273 112.863528 
L 363.272727 113.200762 
L 401.318182 113.236756 
L 439.363636 113.014778 
L 477.409091 112.622647 
L 515.454545 112.167013 
L 553.5 111.746945 
L 591.545455 117.271165 
L 629.590909 116.871582 
L 667.636364 116.351638 
L 705.681818 115.774499 
L 743.727273 115.184745 
L 781.772727 113.800599 
L 819.818182 113.420216 
L 857.863636 113.061576 
L 895.909091 112.734057 
L 933.954545 112.44251 
" style="fill:none;stroke:#ff7f0e;stroke-linecap:square;stroke-width:3;"/>
   </g>
   <g id="line2d_55">
    <path clip-path="url(#p3671d2ed35)" d="M 173.045455 111.109091 
L 211.090909 292.168701 
L 249.136364 433.942403 
L 287.181818 482.890795 
L 325.227273 514.749356 
L 363.272727 536.057456 
L 401.318182 549.660659 
L 439.363636 557.003931 
L 477.409091 558.908621 
L 515.454545 555.884762 
L 553.5 548.261896 
L 591.545455 597.642158 
L 629.590909 602.021939 
L 667.636364 604.41332 
L 705.681818 605.290909 
L 743.727273 605.005612 
L 781.772727 595.120654 
L 819.818182 594.664466 
L 857.863636 593.460665 
L 895.909091 591.661727 
L 933.954545 589.387318 
" style="fill:none;stroke:#2ca02c;stroke-linecap:square;stroke-width:3;"/>
   </g>
   <g id="patch_3">
    <path d="M 135 630 
L 135 86.4 
" style="fill:none;stroke:#000000;stroke-linecap:square;stroke-linejoin:miter;stroke-width:0.8;"/>
   </g>
   <g id="patch_4">
    <path d="M 972 630 
L 972 86.4 
" style="fill:none;stroke:#000000;stroke-linecap:square;stroke-linejoin:miter;stroke-width:0.8;"/>
   </g>
   <g id="patch_5">
    <path d="M 135 630 
L 972 630 
" style="fill:none;stroke:#000000;stroke-linecap:square;stroke-linejoin:miter;stroke-width:0.8;"/>
   </g>
   <g id="patch_6">
    <path d="M 135 86.4 
L 972 86.4 
" style="fill:none;stroke:#000000;stroke-linecap:square;stroke-linejoin:miter;stroke-width:0.8;"/>
   </g>
   <g id="text_13">
    <!-- Cooperativity vs Gate Performance -->
    <defs>
     <path d="M 64.40625 67.28125 
L 64.40625 56.890625 
Q 59.421875 61.53125 53.78125 63.8125 
Q 48.140625 66.109375 41.796875 66.109375 
Q 29.296875 66.109375 22.65625 58.46875 
Q 16.015625 50.828125 16.015625 36.375 
Q 16.015625 21.96875 22.65625 14.328125 
Q 29.296875 6.6875 41.796875 6.6875 
Q 48.140625 6.6875 53.78125 8.984375 
Q 59.421875 11.28125 64.40625 15.921875 
L 64.40625 5.609375 
Q 59.234375 2.09375 53.4375 0.328125 
Q 47.65625 -1.421875 41.21875 -1.421875 
Q 24.65625 -1.421875 15.125 8.703125 
Q 5.609375 18.84375 5.609375 36.375 
Q 5.609375 53.953125 15.125 64.078125 
Q 24.65625 74.21875 41.21875 74.21875 
Q 47.75 74.21875 53.53125 72.484375 
Q 59.328125 70.75 64.40625 67.28125 
z
" id="DejaVuSans-67"/>
     <path d="M 30.609375 48.390625 
Q 23.390625 48.390625 19.1875 42.75 
Q 14.984375 37.109375 14.984375 27.296875 
Q 14.984375 17.484375 19.15625 11.84375 
Q 23.34375 6.203125 30.609375 6.203125 
Q 37.796875 6.203125 41.984375 11.859375 
Q 46.1875 17.53125 46.1875 27.296875 
Q 46.1875 37.015625 41.984375 42.703125 
Q 37.796875 48.390625 30.609375 48.390625 
z
M 30.609375 56 
Q 42.328125 56 49.015625 48.375 
Q 55.71875 40.765625 55.71875 27.296875 
Q 55.71875 13.875 49.015625 6.21875 
Q 42.328125 -1.421875 30.609375 -1.421875 
Q 18.84375 -1.421875 12.171875 6.21875 
Q 5.515625 13.875 5.515625 27.296875 
Q 5.515625 40.765625 12.171875 48.375 
Q 18.84375 56 30.609375 56 
z
" id="DejaVuSans-111"/>
     <path d="M 18.109375 8.203125 
L 18.109375 -20.796875 
L 9.078125 -20.796875 
L 9.078125 54.6875 
L 18.109375 54.6875 
L 18.109375 46.390625 
Q 20.953125 51.265625 25.265625 53.625 
Q 29.59375 56 35.59375 56 
Q 45.5625 56 51.78125 48.09375 
Q 58.015625 40.1875 58.015625 27.296875 
Q 58.015625 14.40625 51.78125 6.484375 
Q 45.5625 -1.421875 35.59375 -1.421875 
Q 29.59375 -1.421875 25.265625 0.953125 
Q 20.953125 3.328125 18.109375 8.203125 
z
M 48.6875 27.296875 
Q 48.6875 37.203125 44.609375 42.84375 
Q 40.53125 48.484375 33.40625 48.484375 
Q 26.265625 48.484375 22.1875 42.84375 
Q 18.109375 37.203125 18.109375 27.296875 
Q 18.109375 17.390625 22.1875 11.75 
Q 26.265625 6.109375 33.40625 6.109375 
Q 40.53125 6.109375 44.609375 11.75 
Q 48.6875 17.390625 48.6875 27.296875 
z
" id="DejaVuSans-112"/>
     <path d="M 56.203125 29.59375 
L 56.203125 25.203125 
L 14.890625 25.203125 
Q 15.484375 15.921875 20.484375 11.0625 
Q 25.484375 6.203125 34.421875 6.203125 
Q 39.59375 6.203125 44.453125 7.46875 
Q 49.3125 8.734375 54.109375 11.28125 
L 54.109375 2.78125 
Q 49.265625 0.734375 44.1875 -0.34375 
Q 39.109375 -1.421875 33.890625 -1.421875 
Q 20.796875 -1.421875 13.15625 6.1875 
Q 5.515625 13.8125 5.515625 26.8125 
Q 5.515625 40.234375 12.765625 48.109375 
Q 20.015625 56 32.328125 56 
Q 43.359375 56 49.78125 48.890625 
Q 56.203125 41.796875 56.203125 29.59375 
z
M 47.21875 32.234375 
Q 47.125 39.59375 43.09375 43.984375 
Q 39.0625 48.390625 32.421875 48.390625 
Q 24.90625 48.390625 20.390625 44.140625 
Q 15.875 39.890625 15.1875 32.171875 
z
" id="DejaVuSans-101"/>
     <path d="M 41.109375 46.296875 
Q 39.59375 47.171875 37.8125 47.578125 
Q 36.03125 48 33.890625 48 
Q 26.265625 48 22.1875 43.046875 
Q 18.109375 38.09375 18.109375 28.8125 
L 18.109375 0 
L 9.078125 0 
L 9.078125 54.6875 
L 18.109375 54.6875 
L 18.109375 46.1875 
Q 20.953125 51.171875 25.484375 53.578125 
Q 30.03125 56 36.53125 56 
Q 37.453125 56 38.578125 55.875 
Q 39.703125 55.765625 41.0625 55.515625 
z
" id="DejaVuSans-114"/>
     <path d="M 34.28125 27.484375 
Q 23.390625 27.484375 19.1875 25 
Q 14.984375 22.515625 14.984375 16.5 
Q 14.984375 11.71875 18.140625 8.90625 
Q 21.296875 6.109375 26.703125 6.109375 
Q 34.1875 6.109375 38.703125 11.40625 
Q 43.21875 16.703125 43.21875 25.484375 
L 43.21875 27.484375 
z
M 52.203125 31.203125 
L 52.203125 0 
L 43.21875 0 
L 43.21875 8.296875 
Q 40.140625 3.328125 35.546875 0.953125 
Q 30.953125 -1.421875 24.3125 -1.421875 
Q 15.921875 -1.421875 10.953125 3.296875 
Q 6 8.015625 6 15.921875 
Q 6 25.140625 12.171875 29.828125 
Q 18.359375 34.515625 30.609375 34.515625 
L 43.21875 34.515625 
L 43.21875 35.40625 
Q 43.21875 41.609375 39.140625 45 
Q 35.0625 48.390625 27.6875 48.390625 
Q 23 48.390625 18.546875 47.265625 
Q 14.109375 46.140625 10.015625 43.890625 
L 10.015625 52.203125 
Q 14.9375 54.109375 19.578125 55.046875 
Q 24.21875 56 28.609375 56 
Q 40.484375 56 46.34375 49.84375 
Q 52.203125 43.703125 52.203125 31.203125 
z
" id="DejaVuSans-97"/>
     <path d="M 18.3125 70.21875 
L 18.3125 54.6875 
L 36.8125 54.6875 
L 36.8125 47.703125 
L 18.3125 47.703125 
L 18.3125 18.015625 
Q 18.3125 11.328125 20.140625 9.421875 
Q 21.96875 7.515625 27.59375 7.515625 
L 36.8125 7.515625 
L 36.8125 0 
L 27.59375 0 
Q 17.1875 0 13.234375 3.875 
Q 9.28125 7.765625 9.28125 18.015625 
L 9.28125 47.703125 
L 2.6875 47.703125 
L 2.6875 54.6875 
L 9.28125 54.6875 
L 9.28125 70.21875 
z
" id="DejaVuSans-116"/>
     <path d="M 9.421875 54.6875 
L 18.40625 54.6875 
L 18.40625 0 
L 9.421875 0 
z
M 9.421875 75.984375 
L 18.40625 75.984375 
L 18.40625 64.59375 
L 9.421875 64.59375 
z
" id="DejaVuSans-105"/>
     <path d="M 2.984375 54.6875 
L 12.5 54.6875 
L 29.59375 8.796875 
L 46.6875 54.6875 
L 56.203125 54.6875 
L 35.6875 0 
L 23.484375 0 
z
" id="DejaVuSans-118"/>
     <path d="M 32.171875 -5.078125 
Q 28.375 -14.84375 24.75 -17.8125 
Q 21.140625 -20.796875 15.09375 -20.796875 
L 7.90625 -20.796875 
L 7.90625 -13.28125 
L 13.1875 -13.28125 
Q 16.890625 -13.28125 18.9375 -11.515625 
Q 21 -9.765625 23.484375 -3.21875 
L 25.09375 0.875 
L 2.984375 54.6875 
L 12.5 54.6875 
L 29.59375 11.921875 
L 46.6875 54.6875 
L 56.203125 54.6875 
z
" id="DejaVuSans-121"/>
     <path id="DejaVuSans-32"/>
     <path d="M 44.28125 53.078125 
L 44.28125 44.578125 
Q 40.484375 46.53125 36.375 47.5 
Q 32.28125 48.484375 27.875 48.484375 
Q 21.1875 48.484375 17.84375 46.4375 
Q 14.5 44.390625 14.5 40.28125 
Q 14.5 37.15625 16.890625 35.375 
Q 19.28125 33.59375 26.515625 31.984375 
L 29.59375 31.296875 
Q 39.15625 29.25 43.1875 25.515625 
Q 47.21875 21.78125 47.21875 15.09375 
Q 47.21875 7.46875 41.1875 3.015625 
Q 35.15625 -1.421875 24.609375 -1.421875 
Q 20.21875 -1.421875 15.453125 -0.5625 
Q 10.6875 0.296875 5.421875 2 
L 5.421875 11.28125 
Q 10.40625 8.6875 15.234375 7.390625 
Q 20.0625 6.109375 24.8125 6.109375 
Q 31.15625 6.109375 34.5625 8.28125 
Q 37.984375 10.453125 37.984375 14.40625 
Q 37.984375 18.0625 35.515625 20.015625 
Q 33.0625 21.96875 24.703125 23.78125 
L 21.578125 24.515625 
Q 13.234375 26.265625 9.515625 29.90625 
Q 5.8125 33.546875 5.8125 39.890625 
Q 5.8125 47.609375 11.28125 51.796875 
Q 16.75 56 26.8125 56 
Q 31.78125 56 36.171875 55.265625 
Q 40.578125 54.546875 44.28125 53.078125 
z
" id="DejaVuSans-115"/>
     <path d="M 59.515625 10.40625 
L 59.515625 29.984375 
L 43.40625 29.984375 
L 43.40625 38.09375 
L 69.28125 38.09375 
L 69.28125 6.78125 
Q 63.578125 2.734375 56.6875 0.65625 
Q 49.8125 -1.421875 42 -1.421875 
Q 24.90625 -1.421875 15.25 8.5625 
Q 5.609375 18.5625 5.609375 36.375 
Q 5.609375 54.25 15.25 64.234375 
Q 24.90625 74.21875 42 74.21875 
Q 49.125 74.21875 55.546875 72.453125 
Q 61.96875 70.703125 67.390625 67.28125 
L 67.390625 56.78125 
Q 61.921875 61.421875 55.765625 63.765625 
Q 49.609375 66.109375 42.828125 66.109375 
Q 29.4375 66.109375 22.71875 58.640625 
Q 16.015625 51.171875 16.015625 36.375 
Q 16.015625 21.625 22.71875 14.15625 
Q 29.4375 6.6875 42.828125 6.6875 
Q 48.046875 6.6875 52.140625 7.59375 
Q 56.25 8.5 59.515625 10.40625 
z
" id="DejaVuSans-71"/>
     <path d="M 19.671875 64.796875 
L 19.671875 37.40625 
L 32.078125 37.40625 
Q 38.96875 37.40625 42.71875 40.96875 
Q 46.484375 44.53125 46.484375 51.125 
Q 46.484375 57.671875 42.71875 61.234375 
Q 38.96875 64.796875 32.078125 64.796875 
z
M 9.8125 72.90625 
L 32.078125 72.90625 
Q 44.34375 72.90625 50.609375 67.359375 
Q 56.890625 61.8125 56.890625 51.125 
Q 56.890625 40.328125 50.609375 34.8125 
Q 44.34375 29.296875 32.078125 29.296875 
L 19.671875 29.296875 
L 19.671875 0 
L 9.8125 0 
z
" id="DejaVuSans-80"/>
     <path d="M 37.109375 75.984375 
L 37.109375 68.5 
L 28.515625 68.5 
Q 23.6875 68.5 21.796875 66.546875 
Q 19.921875 64.59375 19.921875 59.515625 
L 19.921875 54.6875 
L 34.71875 54.6875 
L 34.71875 47.703125 
L 19.921875 47.703125 
L 19.921875 0 
L 10.890625 0 
L 10.890625 47.703125 
L 2.296875 47.703125 
L 2.296875 54.6875 
L 10.890625 54.6875 
L 10.890625 58.5 
Q 10.890625 67.625 15.140625 71.796875 
Q 19.390625 75.984375 28.609375 75.984375 
z
" id="DejaVuSans-102"/>
     <path d="M 52 44.1875 
Q 55.375 50.25 60.0625 53.125 
Q 64.75 56 71.09375 56 
Q 79.640625 56 84.28125 50.015625 
Q 88.921875 44.046875 88.921875 33.015625 
L 88.921875 0 
L 79.890625 0 
L 79.890625 32.71875 
Q 79.890625 40.578125 77.09375 44.375 
Q 74.3125 48.1875 68.609375 48.1875 
Q 61.625 48.1875 57.5625 43.546875 
Q 53.515625 38.921875 53.515625 30.90625 
L 53.515625 0 
L 44.484375 0 
L 44.484375 32.71875 
Q 44.484375 40.625 41.703125 44.40625 
Q 38.921875 48.1875 33.109375 48.1875 
Q 26.21875 48.1875 22.15625 43.53125 
Q 18.109375 38.875 18.109375 30.90625 
L 18.109375 0 
L 9.078125 0 
L 9.078125 54.6875 
L 18.109375 54.6875 
L 18.109375 46.1875 
Q 21.1875 51.21875 25.484375 53.609375 
Q 29.78125 56 35.6875 56 
Q 41.65625 56 45.828125 52.96875 
Q 50 49.953125 52 44.1875 
z
" id="DejaVuSans-109"/>
     <path d="M 54.890625 33.015625 
L 54.890625 0 
L 45.90625 0 
L 45.90625 32.71875 
Q 45.90625 40.484375 42.875 44.328125 
Q 39.84375 48.1875 33.796875 48.1875 
Q 26.515625 48.1875 22.3125 43.546875 
Q 18.109375 38.921875 18.109375 30.90625 
L 18.109375 0 
L 9.078125 0 
L 9.078125 54.6875 
L 18.109375 54.6875 
L 18.109375 46.1875 
Q 21.34375 51.125 25.703125 53.5625 
Q 30.078125 56 35.796875 56 
Q 45.21875 56 50.046875 50.171875 
Q 54.890625 44.34375 54.890625 33.015625 
z
" id="DejaVuSans-110"/>
     <path d="M 48.78125 52.59375 
L 48.78125 44.1875 
Q 44.96875 46.296875 41.140625 47.34375 
Q 37.3125 48.390625 33.40625 48.390625 
Q 24.65625 48.390625 19.8125 42.84375 
Q 14.984375 37.3125 14.984375 27.296875 
Q 14.984375 17.28125 19.8125 11.734375 
Q 24.65625 6.203125 33.40625 6.203125 
Q 37.3125 6.203125 41.140625 7.25 
Q 44.96875 8.296875 48.78125 10.40625 
L 48.78125 2.09375 
Q 45.015625 0.34375 40.984375 -0.53125 
Q 36.96875 -1.421875 32.421875 -1.421875 
Q 20.0625 -1.421875 12.78125 6.34375 
Q 5.515625 14.109375 5.515625 27.296875 
Q 5.515625 40.671875 12.859375 48.328125 
Q 20.21875 56 33.015625 56 
Q 37.15625 56 41.109375 55.140625 
Q 45.0625 54.296875 48.78125 52.59375 
z
" id="DejaVuSans-99"/>
    </defs>
    <g transform="translate(401.6925 61.05018)scale(0.1728 -0.1728)">
     <use xlink:href="#DejaVuSans-67"/>
     <use x="69.824219" xlink:href="#DejaVuSans-111"/>
     <use x="131.005859" xlink:href="#DejaVuSans-111"/>
     <use x="192.1875" xlink:href="#DejaVuSans-112"/>
     <use x="255.664062" xlink:href="#DejaVuSans-101"/>
     <use x="317.1875" xlink:href="#DejaVuSans-114"/>
     <use x="358.300781" xlink:href="#DejaVuSans-97"/>
     <use x="419.580078" xlink:href="#DejaVuSans-116"/>
     <use x="458.789062" xlink:href="#DejaVuSans-105"/>
     <use x="486.572266" xlink:href="#DejaVuSans-118"/>
     <use x="545.751953" xlink:href="#DejaVuSans-105"/>
     <use x="573.535156" xlink:href="#DejaVuSans-116"/>
     <use x="612.744141" xlink:href="#DejaVuSans-121"/>
     <use x="671.923828" xlink:href="#DejaVuSans-32"/>
     <use x="703.710938" xlink:href="#DejaVuSans-118"/>
     <use x="762.890625" xlink:href="#DejaVuSans-115"/>
     <use x="814.990234" xlink:href="#DejaVuSans-32"/>
     <use x="846.777344" xlink:href="#DejaVuSans-71"/>
     <use x="924.267578" xlink:href="#DejaVuSans-97"/>
     <use x="985.546875" xlink:href="#DejaVuSans-116"/>
     <use x="1024.755859" xlink:href="#DejaVuSans-101"/>
     <use x="1086.279297" xlink:href="#DejaVuSans-32"/>
     <use x="1118.066406" xlink:href="#DejaVuSans-80"/>
     <use x="1178.322266" xlink:href="#DejaVuSans-101"/>
     <use x="1239.845703" xlink:href="#DejaVuSans-114"/>
     <use x="1280.958984" xlink:href="#DejaVuSans-102"/>
     <use x="1316.164062" xlink:href="#DejaVuSans-111"/>
     <use x="1377.345703" xlink:href="#DejaVuSans-114"/>
     <use x="1418.443359" xlink:href="#DejaVuSans-109"/>
     <use x="1515.855469" xlink:href="#DejaVuSans-97"/>
     <use x="1577.134766" xlink:href="#DejaVuSans-110"/>
     <use x="1640.513672" xlink:href="#DejaVuSans-99"/>
     <use x="1695.494141" xlink:href="#DejaVuSans-101"/>
    </g>
    <!-- $k=0.95$ -->
    <defs>
     <path d="M 18.3125 75.984375 
L 27.296875 75.984375 
L 18.703125 31.6875 
L 49.515625 54.6875 
L 61.1875 54.6875 
L 26.8125 28.515625 
L 51.90625 0 
L 41.015625 0 
L 17.671875 26.703125 
L 12.5 0 
L 3.515625 0 
z
" id="DejaVuSans-Oblique-107"/>
     <path d="M 10.59375 45.40625 
L 73.1875 45.40625 
L 73.1875 37.203125 
L 10.59375 37.203125 
z
M 10.59375 25.484375 
L 73.1875 25.484375 
L 73.1875 17.1875 
L 10.59375 17.1875 
z
" id="DejaVuSans-61"/>
     <path d="M 10.6875 12.40625 
L 21 12.40625 
L 21 0 
L 10.6875 0 
z
" id="DejaVuSans-46"/>
     <path d="M 10.984375 1.515625 
L 10.984375 10.5 
Q 14.703125 8.734375 18.5 7.8125 
Q 22.3125 6.890625 25.984375 6.890625 
Q 35.75 6.890625 40.890625 13.453125 
Q 46.046875 20.015625 46.78125 33.40625 
Q 43.953125 29.203125 39.59375 26.953125 
Q 35.25 24.703125 29.984375 24.703125 
Q 19.046875 24.703125 12.671875 31.3125 
Q 6.296875 37.9375 6.296875 49.421875 
Q 6.296875 60.640625 12.9375 67.421875 
Q 19.578125 74.21875 30.609375 74.21875 
Q 43.265625 74.21875 49.921875 64.515625 
Q 56.59375 54.828125 56.59375 36.375 
Q 56.59375 19.140625 48.40625 8.859375 
Q 40.234375 -1.421875 26.421875 -1.421875 
Q 22.703125 -1.421875 18.890625 -0.6875 
Q 15.09375 0.046875 10.984375 1.515625 
z
M 30.609375 32.421875 
Q 37.25 32.421875 41.125 36.953125 
Q 45.015625 41.5 45.015625 49.421875 
Q 45.015625 57.28125 41.125 61.84375 
Q 37.25 66.40625 30.609375 66.40625 
Q 23.96875 66.40625 20.09375 61.84375 
Q 16.21875 57.28125 16.21875 49.421875 
Q 16.21875 41.5 20.09375 36.953125 
Q 23.96875 32.421875 30.609375 32.421875 
z
" id="DejaVuSans-57"/>
    </defs>
    <g transform="translate(518.5944 80.4)scale(0.1728 -0.1728)">
     <use transform="translate(0 0.015625)" xlink:href="#DejaVuSans-Oblique-107"/>
     <use transform="translate(77.392578 0.015625)" xlink:href="#DejaVuSans-61"/>
     <use transform="translate(180.664062 0.015625)" xlink:href="#DejaVuSans-48"/>
     <use transform="translate(244.287109 0.015625)" xlink:href="#DejaVuSans-46"/>
     <use transform="translate(276.074219 0.015625)" xlink:href="#DejaVuSans-57"/>
     <use transform="translate(339.697266 0.015625)" xlink:href="#DejaVuSans-53"/>
    </g>
   </g>
   <g id="legend_1">
    <g id="patch_7">
     <path d="M 147.096 621.36 
L 272.8944 621.36 
Q 276.3504 621.36 276.3504 617.904 
L 276.3504 533.3076 
Q 276.3504 529.8516 272.8944 529.8516 
L 147.096 529.8516 
Q 143.64 529.8516 143.64 533.3076 
L 143.64 617.904 
Q 143.64 621.36 147.096 621.36 
z
" style="fill:#ffffff;opacity:0.8;stroke:#cccccc;stroke-linejoin:miter;"/>
    </g>
    <g id="line2d_56">
     <path d="M 150.552 543.8457 
L 185.112 543.8457 
" style="fill:none;stroke:#1f77b4;stroke-linecap:square;stroke-width:3;"/>
    </g>
    <g id="line2d_57"/>
    <g id="text_14">
     <!-- $1-F$ -->
     <defs>
      <path d="M 16.890625 72.90625 
L 58.6875 72.90625 
L 57.078125 64.59375 
L 25.09375 64.59375 
L 20.90625 43.109375 
L 49.8125 43.109375 
L 48.1875 34.8125 
L 19.28125 34.8125 
L 12.5 0 
L 2.6875 0 
z
" id="DejaVuSans-Oblique-70"/>
     </defs>
     <g transform="translate(198.936 549.8937)scale(0.1728 -0.1728)">
      <use transform="translate(0 0.09375)" xlink:href="#DejaVuSans-49"/>
      <use transform="translate(83.105469 0.09375)" xlink:href="#DejaVuSans-8722"/>
      <use transform="translate(186.376953 0.09375)" xlink:href="#DejaVuSans-Oblique-70"/>
     </g>
    </g>
    <g id="line2d_58">
     <path d="M 150.552 569.2095 
L 185.112 569.2095 
" style="fill:none;stroke:#ff7f0e;stroke-linecap:square;stroke-width:3;"/>
    </g>
    <g id="line2d_59"/>
    <g id="text_15">
     <!-- $1-P_{succ}$ -->
     <defs>
      <path d="M 16.890625 72.90625 
L 39.703125 72.90625 
Q 49.65625 72.90625 54.875 68.265625 
Q 60.109375 63.625 60.109375 54.6875 
Q 60.109375 42.671875 52.390625 35.984375 
Q 44.671875 29.296875 30.71875 29.296875 
L 18.3125 29.296875 
L 12.59375 0 
L 2.6875 0 
z
M 25.203125 64.796875 
L 19.921875 37.40625 
L 32.328125 37.40625 
Q 40.71875 37.40625 45.203125 41.703125 
Q 49.703125 46 49.703125 54 
Q 49.703125 59.125 46.65625 61.953125 
Q 43.609375 64.796875 38.09375 64.796875 
z
" id="DejaVuSans-Oblique-80"/>
      <path d="M 50 53.078125 
L 48.296875 44.578125 
Q 44.734375 46.53125 40.765625 47.5 
Q 36.8125 48.484375 32.625 48.484375 
Q 25.53125 48.484375 21.453125 46.0625 
Q 17.390625 43.65625 17.390625 39.5 
Q 17.390625 34.671875 26.859375 32.078125 
Q 27.59375 31.890625 27.9375 31.78125 
L 30.8125 30.90625 
Q 39.796875 28.421875 42.796875 25.6875 
Q 45.796875 22.953125 45.796875 18.21875 
Q 45.796875 9.515625 38.890625 4.046875 
Q 31.984375 -1.421875 20.796875 -1.421875 
Q 16.453125 -1.421875 11.671875 -0.578125 
Q 6.890625 0.25 1.125 2 
L 2.875 11.28125 
Q 7.8125 8.734375 12.59375 7.421875 
Q 17.390625 6.109375 21.78125 6.109375 
Q 28.375 6.109375 32.5 8.9375 
Q 36.625 11.765625 36.625 16.109375 
Q 36.625 20.796875 25.78125 23.6875 
L 24.859375 23.921875 
L 21.78125 24.703125 
Q 14.9375 26.515625 11.765625 29.46875 
Q 8.59375 32.421875 8.59375 37.015625 
Q 8.59375 45.75 15.15625 50.875 
Q 21.734375 56 33.015625 56 
Q 37.453125 56 41.671875 55.265625 
Q 45.90625 54.546875 50 53.078125 
z
" id="DejaVuSans-Oblique-115"/>
      <path d="M 6.6875 21.6875 
L 13.09375 54.6875 
L 22.125 54.6875 
L 15.71875 22.015625 
Q 15.234375 19.625 15.015625 17.921875 
Q 14.796875 16.21875 14.796875 15.09375 
Q 14.796875 10.9375 17.328125 8.65625 
Q 19.875 6.390625 24.515625 6.390625 
Q 31.734375 6.390625 37 11.265625 
Q 42.28125 16.15625 43.890625 24.421875 
L 49.90625 54.6875 
L 58.890625 54.6875 
L 48.296875 0 
L 39.3125 0 
L 41.109375 8.59375 
Q 37.3125 3.8125 32.0625 1.1875 
Q 26.8125 -1.421875 20.90625 -1.421875 
Q 13.71875 -1.421875 9.71875 2.515625 
Q 5.71875 6.453125 5.71875 13.484375 
Q 5.71875 14.9375 5.953125 17.140625 
Q 6.203125 19.34375 6.6875 21.6875 
z
" id="DejaVuSans-Oblique-117"/>
      <path d="M 53.609375 52.59375 
L 51.8125 43.703125 
Q 48.578125 46.046875 44.9375 47.21875 
Q 41.3125 48.390625 37.40625 48.390625 
Q 33.109375 48.390625 29.21875 46.875 
Q 25.34375 45.359375 22.703125 42.578125 
Q 18.5 38.328125 16.203125 32.609375 
Q 13.921875 26.90625 13.921875 20.796875 
Q 13.921875 13.421875 17.609375 9.8125 
Q 21.296875 6.203125 28.8125 6.203125 
Q 32.515625 6.203125 36.6875 7.328125 
Q 40.875 8.453125 45.40625 10.6875 
L 43.703125 1.8125 
Q 39.796875 0.203125 35.671875 -0.609375 
Q 31.546875 -1.421875 27.203125 -1.421875 
Q 16.3125 -1.421875 10.453125 4.015625 
Q 4.59375 9.46875 4.59375 19.578125 
Q 4.59375 28.078125 7.640625 35.234375 
Q 10.6875 42.390625 16.703125 48.09375 
Q 20.796875 52 26.3125 54 
Q 31.84375 56 38.375 56 
Q 42.1875 56 45.9375 55.140625 
Q 49.703125 54.296875 53.609375 52.59375 
z
" id="DejaVuSans-Oblique-99"/>
     </defs>
     <g transform="translate(198.936 575.2575)scale(0.1728 -0.1728)">
      <use transform="translate(0 0.09375)" xlink:href="#DejaVuSans-49"/>
      <use transform="translate(83.105469 0.09375)" xlink:href="#DejaVuSans-8722"/>
      <use transform="translate(186.376953 0.09375)" xlink:href="#DejaVuSans-Oblique-80"/>
      <use transform="translate(246.679688 -16.3125)scale(0.7)" xlink:href="#DejaVuSans-Oblique-115"/>
      <use transform="translate(283.149414 -16.3125)scale(0.7)" xlink:href="#DejaVuSans-Oblique-117"/>
      <use transform="translate(327.514648 -16.3125)scale(0.7)" xlink:href="#DejaVuSans-Oblique-99"/>
      <use transform="translate(366.000977 -16.3125)scale(0.7)" xlink:href="#DejaVuSans-Oblique-99"/>
     </g>
    </g>
    <g id="line2d_60">
     <path d="M 150.552 601.3152 
L 185.112 601.3152 
" style="fill:none;stroke:#2ca02c;stroke-linecap:square;stroke-width:3;"/>
    </g>
    <g id="line2d_61"/>
    <g id="text_16">
     <!-- $\frac{t_g}{1853}$$\,\left[\frac{1}{\gamma}\right]$ -->
     <defs>
      <path d="M 42.28125 54.6875 
L 40.921875 47.703125 
L 23 47.703125 
L 17.1875 18.015625 
Q 16.890625 16.359375 16.75 15.234375 
Q 16.609375 14.109375 16.609375 13.484375 
Q 16.609375 10.359375 18.484375 8.9375 
Q 20.359375 7.515625 24.515625 7.515625 
L 33.59375 7.515625 
L 32.078125 0 
L 23.484375 0 
Q 15.484375 0 11.546875 3.125 
Q 7.625 6.25 7.625 12.59375 
Q 7.625 13.71875 7.765625 15.0625 
Q 7.90625 16.40625 8.203125 18.015625 
L 14.015625 47.703125 
L 6.390625 47.703125 
L 7.8125 54.6875 
L 15.28125 54.6875 
L 18.3125 70.21875 
L 27.296875 70.21875 
L 24.3125 54.6875 
z
" id="DejaVuSans-Oblique-116"/>
      <path d="M 59.625 54.6875 
L 50.296875 6.78125 
Q 47.609375 -7.125 40.015625 -13.953125 
Q 32.421875 -20.796875 19.578125 -20.796875 
Q 14.84375 -20.796875 10.78125 -20.09375 
Q 6.734375 -19.390625 3.21875 -17.921875 
L 4.890625 -9.1875 
Q 8.203125 -11.328125 11.90625 -12.34375 
Q 15.625 -13.375 19.828125 -13.375 
Q 28.375 -13.375 33.859375 -8.703125 
Q 39.359375 -4.046875 41.109375 4.6875 
L 41.890625 8.796875 
Q 38.140625 4.5 33.15625 2.25 
Q 28.171875 0 22.40625 0 
Q 14.109375 0 9.34375 5.484375 
Q 4.59375 10.984375 4.59375 20.609375 
Q 4.59375 28.171875 7.46875 35.421875 
Q 10.359375 42.671875 15.578125 48.296875 
Q 19.046875 52 23.65625 54 
Q 28.265625 56 33.296875 56 
Q 38.8125 56 42.90625 53.4375 
Q 47.015625 50.875 49.03125 46.1875 
L 50.59375 54.6875 
z
M 46.09375 34.625 
Q 46.09375 41.265625 42.96875 44.875 
Q 39.84375 48.484375 34.078125 48.484375 
Q 30.515625 48.484375 27.296875 47.0625 
Q 24.078125 45.65625 21.78125 43.109375 
Q 18.0625 38.921875 15.984375 33.234375 
Q 13.921875 27.546875 13.921875 21.484375 
Q 13.921875 14.75 17.0625 11.125 
Q 20.21875 7.515625 26.125 7.515625 
Q 34.671875 7.515625 40.375 15.25 
Q 46.09375 23 46.09375 34.625 
z
" id="DejaVuSans-Oblique-103"/>
      <path d="M 31.78125 34.625 
Q 24.75 34.625 20.71875 30.859375 
Q 16.703125 27.09375 16.703125 20.515625 
Q 16.703125 13.921875 20.71875 10.15625 
Q 24.75 6.390625 31.78125 6.390625 
Q 38.8125 6.390625 42.859375 10.171875 
Q 46.921875 13.96875 46.921875 20.515625 
Q 46.921875 27.09375 42.890625 30.859375 
Q 38.875 34.625 31.78125 34.625 
z
M 21.921875 38.8125 
Q 15.578125 40.375 12.03125 44.71875 
Q 8.5 49.078125 8.5 55.328125 
Q 8.5 64.0625 14.71875 69.140625 
Q 20.953125 74.21875 31.78125 74.21875 
Q 42.671875 74.21875 48.875 69.140625 
Q 55.078125 64.0625 55.078125 55.328125 
Q 55.078125 49.078125 51.53125 44.71875 
Q 48 40.375 41.703125 38.8125 
Q 48.828125 37.15625 52.796875 32.3125 
Q 56.78125 27.484375 56.78125 20.515625 
Q 56.78125 9.90625 50.3125 4.234375 
Q 43.84375 -1.421875 31.78125 -1.421875 
Q 19.734375 -1.421875 13.25 4.234375 
Q 6.78125 9.90625 6.78125 20.515625 
Q 6.78125 27.484375 10.78125 32.3125 
Q 14.796875 37.15625 21.921875 38.8125 
z
M 18.3125 54.390625 
Q 18.3125 48.734375 21.84375 45.5625 
Q 25.390625 42.390625 31.78125 42.390625 
Q 38.140625 42.390625 41.71875 45.5625 
Q 45.3125 48.734375 45.3125 54.390625 
Q 45.3125 60.0625 41.71875 63.234375 
Q 38.140625 66.40625 31.78125 66.40625 
Q 25.390625 66.40625 21.84375 63.234375 
Q 18.3125 60.0625 18.3125 54.390625 
z
" id="DejaVuSans-56"/>
      <path d="M 42.203125 -27.90625 
L 19 -27.90625 
L 19 156.59375 
L 42.203125 156.59375 
L 42.203125 152.59375 
L 26.59375 152.59375 
L 26.59375 -23.90625 
L 42.203125 -23.90625 
z
" id="STIXSizeTwoSym-Regular-91"/>
      <path d="M 23.296875 46.09375 
L 28.71875 12.3125 
L 54 54.6875 
L 63.53125 54.6875 
L 30.8125 0 
L 26.765625 -20.796875 
L 17.78125 -20.796875 
L 21.828125 0 
L 15.4375 40.828125 
Q 14.453125 46.96875 9.8125 46.96875 
L 7.421875 46.96875 
L 8.890625 54.6875 
L 12.3125 54.6875 
Q 21.921875 54.6875 23.296875 46.09375 
z
" id="DejaVuSans-Oblique-947"/>
      <path d="M 26.90625 -27.90625 
L 3.703125 -27.90625 
L 3.703125 -23.90625 
L 19.296875 -23.90625 
L 19.296875 152.59375 
L 3.703125 152.59375 
L 3.703125 156.59375 
L 26.90625 156.59375 
z
" id="STIXSizeTwoSym-Regular-93"/>
     </defs>
     <g transform="translate(198.936 607.3632)scale(0.1728 -0.1728)">
      <use transform="translate(59 65.846875)scale(0.7)" xlink:href="#DejaVuSans-Oblique-116"/>
      <use transform="translate(86.446289 54.3625)scale(0.49)" xlink:href="#DejaVuSans-Oblique-103"/>
      <use transform="translate(0 -39.031094)scale(0.7)" xlink:href="#DejaVuSans-49"/>
      <use transform="translate(44.536133 -39.031094)scale(0.7)" xlink:href="#DejaVuSans-56"/>
      <use transform="translate(89.072266 -39.031094)scale(0.7)" xlink:href="#DejaVuSans-53"/>
      <use transform="translate(133.608398 -39.031094)scale(0.7)" xlink:href="#DejaVuSans-51"/>
      <use transform="translate(206.880208 -19.479531)scale(0.732376)" xlink:href="#STIXSizeTwoSym-Regular-91"/>
      <use transform="translate(240.494786 44.172031)scale(0.7)" xlink:href="#DejaVuSans-49"/>
      <use transform="translate(242.494786 -25.359219)scale(0.7)" xlink:href="#DejaVuSans-Oblique-947"/>
      <use transform="translate(297.530919 -19.479531)scale(0.732376)" xlink:href="#STIXSizeTwoSym-Regular-93"/>
      <path d="M 0 19.172031 
L 0 25.422031 
L 178.144531 25.422031 
L 178.144531 19.172031 
L 0 19.172031 
z
"/>
      <path d="M 240.494786 19.172031 
L 240.494786 25.422031 
L 285.030919 25.422031 
L 285.030919 19.172031 
L 240.494786 19.172031 
z
"/>
     </g>
    </g>
   </g>
  </g>
 </g>
 <defs>
  <clipPath id="p3671d2ed35">
   <rect height="543.6" width="837" x="135" y="86.4"/>
  </clipPath>
 </defs>
</svg>
